<?xml version="1.0" encoding="UTF-8" standalone="no"?>
<svg
   xmlns:dc="http://purl.org/dc/elements/1.1/"
   xmlns:cc="http://creativecommons.org/ns#"
   xmlns:rdf="http://www.w3.org/1999/02/22-rdf-syntax-ns#"
   xmlns:svg="http://www.w3.org/2000/svg"
   xmlns="http://www.w3.org/2000/svg"
   xmlns:sodipodi="http://sodipodi.sourceforge.net/DTD/sodipodi-0.dtd"
   xmlns:inkscape="http://www.inkscape.org/namespaces/inkscape"
   version="1.1"
   height="80"
   width="80"
   id="svg2"
   inkscape:version="0.48.1 r9760"
   sodipodi:docname="4ee630086ab91_icon.svg"
   inkscape:export-filename="/home/imlich/workspace/wis/4ee630086ab91_icon1.png"
   inkscape:export-xdpi="73.849998"
   inkscape:export-ydpi="73.849998">
  <metadata
     id="metadata37">
    <rdf:RDF>
      <cc:Work
         rdf:about="">
        <dc:title></dc:title>
      </cc:Work>
    </rdf:RDF>
  </metadata>
  <sodipodi:namedview
     pagecolor="#ffffff"
     bordercolor="#666666"
     borderopacity="1"
     objecttolerance="10"
     gridtolerance="10"
     guidetolerance="10"
     inkscape:pageopacity="0"
     inkscape:pageshadow="2"
     inkscape:window-width="1280"
     inkscape:window-height="966"
     id="namedview35"
     showgrid="false"
     inkscape:zoom="4.6492271"
     inkscape:cx="26.759766"
     inkscape:cy="16.194368"
     inkscape:window-x="0"
     inkscape:window-y="26"
     inkscape:window-maximized="1"
     inkscape:current-layer="svg2" />
  <defs
     id="defs4">
    <linearGradient
       id="hicg_overlay_grad"
       gradientUnits="userSpaceOnUse"
       x1="39.9995"
       y1="5.1816"
       x2="39.9995"
       y2="58.8019">
      <stop
         offset="0"
         style="stop-color:#FFFFFF"
         id="stop7" />
      <stop
         offset="1"
         style="stop-color:#000000"
         id="stop9" />
    </linearGradient>
    <filter
       id="hicg_drop_shadow">
      <feOffset
         in="SourceAlpha"
         dx="0"
         dy="4"
         id="feOffset12" />
      <feGaussianBlur
         stdDeviation="4"
         id="feGaussianBlur14" />
      <feColorMatrix
         type="matrix"
         values="1 0 0 0 0  0 1 0 0 0  0 0 1 0 0  0 0 0 0.5 0"
         result="shadow"
         id="feColorMatrix16" />
      <feBlend
         in="SourceGraphic"
         in2="shadow"
         mode="normal"
         id="feBlend18" />
    </filter>
    <defs
       id="defs3054" />
    <sodipodi:namedview
       inkscape:window-maximized="1"
       inkscape:window-y="26"
       inkscape:window-x="0"
       inkscape:window-height="966"
       inkscape:window-width="1280"
       showgrid="false"
       inkscape:current-layer="layer1"
       inkscape:document-units="px"
       inkscape:cy="18.00402"
       inkscape:cx="70.036526"
       inkscape:zoom="5.6"
       inkscape:pageshadow="2"
       inkscape:pageopacity="0.0"
       borderopacity="1.0"
       bordercolor="#666666"
       pagecolor="#ffffff"
       id="base" />
  </defs>
  <path
     style="fill:#ffffff"
     inkscape:connector-curvature="0"
     d="M 79,40 C 79,68.893 68.895,79 40,79 11.105,79 1,68.893 1,40 1,11.106 11.105,1 40,1 68.895,1 79,11.106 79,40 z"
     id="hicg_background" />
  <path
     inkscape:connector-curvature="0"
     style="opacity:0.65777777999999998;fill:#ffffff;fill-opacity:1"
     d="M 78.977,40 C 78.977,68.893 68.877,79 40,79 11.123,79 1.023,68.893 1.023,40 1.023,11.106 11.123,1 40,1 68.877,1 78.977,11.106 78.977,40 z"
     id="hicg_overlay" />
  <path
     style="opacity:0.25000000000000000;fill:#555753;stroke:none;stroke-opacity:1"
     inkscape:connector-curvature="0"
     d="M 39.999,1 C 11.105,1 1,11.106 1,40 1,68.893 11.105,79 39.999,79 68.896,79 79,68.893 79,40 79,11.106 68.896,1 39.999,1 z m 0,77.025 C 11.57,78.025 1.976,68.43 1.976,40 c 0,-28.429 9.595,-38.024 38.023,-38.024 28.43,0 38.024,9.596 38.024,38.024 0,28.43 -9.594,38.025 -38.024,38.025 z"
     id="hicg_highlight" />
  <g
     transform="matrix(0.71424259,0,0,0.71424259,10.781846,-682.00157)"
     id="g3083">
    <path
       inkscape:connector-curvature="0"
       d="m 36.286283,1040.265 6.459611,0 0,-58.80354 -6.459611,0 0,58.80354 z"
       style="fill:#05a1e6;fill-opacity:1;fill-rule:evenodd;stroke:none"
       id="path3022-4" />
    <path
       inkscape:connector-curvature="0"
       d="m 21.694514,981.46145 11.139062,0 0,6.45921 -4.679847,0 0,10.92234 4.679847,0 0,6.4592 -4.679847,0 0,34.9559 -6.459215,0 0,-58.79665"
       style="fill:#05a1e6;fill-opacity:1;fill-rule:evenodd;stroke:none"
       id="path3024-8" />
    <path
       inkscape:connector-curvature="0"
       d="m 45.770653,987.92315 0,-6.45964 14.350603,0 0,6.45964 -3.946105,0 0,52.34065 -6.459221,0 0,-52.34065 -3.945277,0"
       style="fill:#05a1e6;fill-opacity:1;fill-rule:evenodd;stroke:none"
       id="path3026-4" />
  </g>
</svg>
